<svg width="348" height="88" viewBox="0 0 348 88" fill="none" xmlns="http://www.w3.org/2000/svg">
<path d="M127.824 38.736C127.824 41.1893 127.067 42.9813 125.552 44.112C124.037 45.2427 121.957 45.808 119.312 45.808H116.464V54H113.712V31.952H119.312C122.021 31.952 124.112 32.5173 125.584 33.648C127.077 34.7787 127.824 36.4747 127.824 38.736ZM124.848 38.768C124.848 37.168 124.379 36.0053 123.44 35.28C122.523 34.5333 121.264 34.16 119.664 34.16H116.464V43.6H119.568C121.232 43.6 122.523 43.2373 123.44 42.512C124.379 41.7867 124.848 40.5387 124.848 38.768ZM135.076 49.104C135.076 50.192 135.3 50.992 135.748 51.504C136.217 51.9947 136.942 52.24 137.924 52.24C138.82 52.24 139.684 51.984 140.516 51.472C141.348 50.96 142.009 50.32 142.5 49.552V37.136H145.188V54H142.884L142.66 51.728C141.998 52.56 141.177 53.2107 140.196 53.68C139.236 54.128 138.254 54.352 137.252 54.352C135.652 54.352 134.436 53.9253 133.604 53.072C132.793 52.2187 132.388 50.992 132.388 49.392V37.136H135.076V49.104ZM162.967 36.784C163.65 36.784 164.439 36.9013 165.335 37.136L164.951 42.864H162.775V39.248H162.615C160.012 39.248 158.167 41.104 157.079 44.816V51.92H160.503V54H151.735V51.92H154.391V39.216H151.735V37.136H156.407L156.919 41.136C157.602 39.6853 158.412 38.5973 159.351 37.872C160.311 37.1467 161.516 36.784 162.967 36.784ZM178.315 36.784C182.389 36.784 184.427 39.7067 184.427 45.552C184.427 48.2187 183.872 50.352 182.763 51.952C181.653 53.552 180.043 54.352 177.931 54.352C176.096 54.352 174.603 53.712 173.451 52.432V60.464L170.763 60.784V37.136H173.067L173.291 39.504C173.909 38.6293 174.645 37.9573 175.499 37.488C176.373 37.0187 177.312 36.784 178.315 36.784ZM177.675 38.96C176.821 38.96 176.032 39.216 175.307 39.728C174.603 40.24 173.984 40.88 173.451 41.648V50C173.899 50.6613 174.453 51.184 175.115 51.568C175.797 51.9307 176.533 52.112 177.323 52.112C178.731 52.112 179.776 51.5787 180.459 50.512C181.163 49.424 181.515 47.7707 181.515 45.552C181.515 43.3333 181.205 41.68 180.587 40.592C179.968 39.504 178.997 38.96 177.675 38.96ZM196.542 49.84C196.542 51.3547 197.47 52.112 199.326 52.112C200.201 52.112 201.139 51.92 202.142 51.536L202.846 53.488C201.779 54.064 200.446 54.352 198.846 54.352C197.331 54.352 196.115 53.936 195.198 53.104C194.302 52.272 193.854 51.1413 193.854 49.712V32.496H188.67V30.352H196.542V49.84ZM211.282 46.512C211.346 48.368 211.826 49.7653 212.722 50.704C213.639 51.6427 214.791 52.112 216.178 52.112C217.01 52.112 217.767 51.9947 218.45 51.76C219.154 51.504 219.9 51.12 220.69 50.608L221.938 52.4C221.148 53.0187 220.242 53.4987 219.218 53.84C218.215 54.1813 217.202 54.352 216.178 54.352C213.746 54.352 211.847 53.5627 210.482 51.984C209.138 50.384 208.466 48.2507 208.466 45.584C208.466 43.8987 208.764 42.3947 209.362 41.072C209.959 39.728 210.812 38.6827 211.922 37.936C213.031 37.168 214.322 36.784 215.794 36.784C217.927 36.784 219.602 37.5307 220.818 39.024C222.055 40.496 222.674 42.512 222.674 45.072C222.674 45.5627 222.652 46.0427 222.61 46.512H211.282ZM215.826 38.992C214.524 38.992 213.468 39.4613 212.658 40.4C211.847 41.3173 211.388 42.672 211.282 44.464H220.05C220.028 42.6933 219.644 41.3387 218.898 40.4C218.151 39.4613 217.127 38.992 215.826 38.992ZM242.309 47.888C242.309 49.168 241.989 50.2987 241.349 51.28C240.709 52.24 239.781 52.9973 238.565 53.552C237.349 54.0853 235.909 54.352 234.245 54.352C232.645 54.352 231.184 54.1173 229.861 53.648C228.56 53.1573 227.44 52.464 226.501 51.568L228.165 49.68C228.976 50.448 229.872 51.0347 230.853 51.44C231.856 51.8453 232.997 52.048 234.277 52.048C235.728 52.048 236.944 51.696 237.925 50.992C238.906 50.288 239.397 49.2747 239.397 47.952C239.397 47.2053 239.258 46.5867 238.981 46.096C238.704 45.6053 238.213 45.168 237.509 44.784C236.826 44.4 235.856 44.0267 234.597 43.664C232.208 42.96 230.426 42.1387 229.253 41.2C228.08 40.24 227.493 38.9387 227.493 37.296C227.493 36.208 227.792 35.2267 228.389 34.352C228.986 33.4773 229.829 32.8053 230.917 32.336C232.005 31.8453 233.242 31.6 234.629 31.6C236.08 31.6 237.37 31.8133 238.501 32.24C239.653 32.6667 240.709 33.296 241.669 34.128L240.005 35.92C238.49 34.5973 236.73 33.936 234.725 33.936C233.445 33.936 232.389 34.2133 231.557 34.768C230.725 35.3227 230.309 36.1333 230.309 37.2C230.309 37.84 230.48 38.384 230.821 38.832C231.162 39.28 231.728 39.696 232.517 40.08C233.306 40.464 234.416 40.8587 235.845 41.264C237.914 41.8613 239.504 42.64 240.613 43.6C241.744 44.56 242.309 45.9893 242.309 47.888ZM255.161 52.048C256.633 52.048 258.094 51.5573 259.545 50.576L260.825 52.336C260.121 52.9547 259.246 53.4453 258.201 53.808C257.155 54.1707 256.142 54.352 255.161 54.352C252.665 54.352 250.713 53.5733 249.305 52.016C247.918 50.4373 247.225 48.3147 247.225 45.648C247.225 43.9627 247.534 42.448 248.153 41.104C248.793 39.76 249.71 38.704 250.905 37.936C252.099 37.168 253.518 36.784 255.161 36.784C257.337 36.784 259.214 37.4453 260.793 38.768L259.481 40.528C258.009 39.5467 256.558 39.056 255.129 39.056C253.614 39.056 252.398 39.6213 251.481 40.752C250.585 41.8613 250.137 43.4933 250.137 45.648C250.137 47.8027 250.585 49.4133 251.481 50.48C252.398 51.5253 253.625 52.048 255.161 52.048ZM269.388 39.472C270.049 38.6187 270.86 37.9573 271.82 37.488C272.78 37.0187 273.772 36.784 274.796 36.784C277.953 36.784 279.532 38.448 279.532 41.776V54H276.844V41.808C276.844 40.8053 276.609 40.08 276.14 39.632C275.671 39.1627 274.924 38.928 273.9 38.928C273.025 38.928 272.183 39.2053 271.372 39.76C270.561 40.3147 269.9 40.9653 269.388 41.712V54H266.7V30.384L269.388 30.096V39.472ZM292.32 36.784C294.645 36.784 296.426 37.5733 297.664 39.152C298.922 40.7093 299.552 42.8427 299.552 45.552C299.552 48.1973 298.912 50.3307 297.632 51.952C296.373 53.552 294.592 54.352 292.288 54.352C289.962 54.352 288.17 53.5733 286.911 52.016C285.653 50.4373 285.024 48.2933 285.024 45.584C285.024 42.9173 285.653 40.784 286.911 39.184C288.192 37.584 289.994 36.784 292.32 36.784ZM292.32 38.992C290.848 38.992 289.749 39.536 289.024 40.624C288.298 41.712 287.936 43.3653 287.936 45.584C287.936 47.8027 288.288 49.456 288.992 50.544C289.717 51.6107 290.816 52.144 292.288 52.144C293.76 52.144 294.848 51.6107 295.552 50.544C296.277 49.456 296.64 47.792 296.64 45.552C296.64 43.3333 296.277 41.6907 295.552 40.624C294.848 39.536 293.77 38.992 292.32 38.992ZM311.507 36.784C313.832 36.784 315.614 37.5733 316.851 39.152C318.11 40.7093 318.739 42.8427 318.739 45.552C318.739 48.1973 318.099 50.3307 316.819 51.952C315.56 53.552 313.779 54.352 311.475 54.352C309.15 54.352 307.358 53.5733 306.099 52.016C304.84 50.4373 304.211 48.2933 304.211 45.584C304.211 42.9173 304.84 40.784 306.099 39.184C307.379 37.584 309.182 36.784 311.507 36.784ZM311.507 38.992C310.035 38.992 308.936 39.536 308.211 40.624C307.486 41.712 307.123 43.3653 307.123 45.584C307.123 47.8027 307.475 49.456 308.179 50.544C308.904 51.6107 310.003 52.144 311.475 52.144C312.947 52.144 314.035 51.6107 314.739 50.544C315.464 49.456 315.827 47.792 315.827 45.552C315.827 43.3333 315.464 41.6907 314.739 40.624C314.035 39.536 312.958 38.992 311.507 38.992ZM330.855 49.84C330.855 51.3547 331.783 52.112 333.639 52.112C334.513 52.112 335.452 51.92 336.455 51.536L337.159 53.488C336.092 54.064 334.759 54.352 333.159 54.352C331.644 54.352 330.428 53.936 329.51 53.104C328.615 52.272 328.167 51.1413 328.167 49.712V32.496H322.983V30.352H330.855V49.84Z" fill="white"/>
<g filter="url(#filter0_d_830_539)">
<path d="M40 0L74.641 20V60L40 80L5.35898 60V20L40 0Z" fill="#16151B"/>
<path d="M7.85898 21.4434L40 2.88675L72.141 21.4434V58.5566L40 77.1133L7.85898 58.5566V21.4434Z" stroke="#6C38CC" stroke-width="5"/>
</g>
<path d="M29.1328 34.5928L38.8008 45.1885L38.1904 45.8477L21.6377 35.3008V33.9092L38.1904 23.3379L38.8008 23.9971L29.1328 34.5928Z" fill="white"/>
<path d="M50.8672 44.4072L41.1992 33.8115L41.8096 33.1523L58.3623 43.6992L58.3623 45.0908L41.8096 55.6621L41.1992 55.0029L50.8672 44.4072Z" fill="white"/>
<defs>
<filter id="filter0_d_830_539" x="1.35938" y="0" width="77.2812" height="88" filterUnits="userSpaceOnUse" color-interpolation-filters="sRGB">
<feFlood flood-opacity="0" result="BackgroundImageFix"/>
<feColorMatrix in="SourceAlpha" type="matrix" values="0 0 0 0 0 0 0 0 0 0 0 0 0 0 0 0 0 0 127 0" result="hardAlpha"/>
<feOffset dy="4"/>
<feGaussianBlur stdDeviation="2"/>
<feComposite in2="hardAlpha" operator="out"/>
<feColorMatrix type="matrix" values="0 0 0 0 0 0 0 0 0 0 0 0 0 0 0 0 0 0 0.25 0"/>
<feBlend mode="normal" in2="BackgroundImageFix" result="effect1_dropShadow_830_539"/>
<feBlend mode="normal" in="SourceGraphic" in2="effect1_dropShadow_830_539" result="shape"/>
</filter>
</defs>
</svg>
